# xmcd CD database file
# Copyright (C) 1993-1998 Ti Kan
# 
# Track frame offsets:
#     150
#     8945
#     20742
#     31085
#     42347
#     49380
#     63640
#     75310
#     86092
#     95605
# 
# Disc length: 1550 seconds
# 
# Revision: 1
# Processed by: cddbd v1.4b41PL1 Copyright (c) Steve Scherf et al.
# Submitted via: DiscPlay 4.0.4
# 
DISCID=7b060c0a
DTITLE=Fats Domino - Fats Domino Greatest Hits "Live" in Concert
DYEAR=1900
DGENRE=
TTITLE0=I'm Ready
TTITLE1=Blueberry Hill
TTITLE2=I'm Gonna Be a Wheel Someday
TTITLE3=Ain't That a Shame
TTITLE4=Whole Lotta Loving
TTITLE5=I'm In Love Again
TTITLE6=Blue Monday
TTITLE7=I'm Walking to New Orleans
TTITLE8=I Want to Walk You Home
TTITLE9=Jambalaya (On The Bayou)
EXTD=
EXTT0=\n
EXTT1=
EXTT2=
EXTT3=
EXTT4=
EXTT5=
EXTT6=
EXTT7=
EXTT8=
EXTT9=
PLAYORDER=
